<svg xmlns="http://www.w3.org/2000/svg" width="1440" height="2048" viewBox="0 0 1440 2048">
  <style>
    .box { fill:#ffffff; stroke:#cbd5e1; }
    .title { font: 700 24px sans-serif; fill:#0f172a }
    .label { font: 400 16px sans-serif; fill:#334155 }
  </style>
  <rect width="100%" height="100%" fill="#f8fafc" />
  <text x="40" y="60" class="title">Wireframe - الصفحة الرئيسية</text>
  <rect x="40" y="100" width="1360" height="260" rx="16" class="box"/>
  <text x="60" y="140" class="label">Hero CTA: عنوان، وصف، اختيار نوع العقار، CTA</text>
  <rect x="40" y="400" width="420" height="360" rx="12" class="box"/>
  <rect x="510" y="400" width="420" height="360" rx="12" class="box"/>
  <rect x="980" y="400" width="420" height="360" rx="12" class="box"/>
  <text x="40" y="380" class="title">الأخبار والنصائح</text>
  <text x="60" y="430" class="label">بطاقة خبر</text>
  <text x="530" y="430" class="label">بطاقة خبر</text>
  <text x="1000" y="430" class="label">بطاقة خبر</text>
  <text x="40" y="800" class="title">المميزات (Carousel)</text>
  <rect x="40" y="820" width="1360" height="280" rx="16" class="box"/>
  <text x="60" y="850" class="label">3 بطاقات/شريحة</text>
  <text x="40" y="1160" class="title">الشهادات + نموذج</text>
  <rect x="40" y="1180" width="820" height="300" rx="12" class="box"/>
  <rect x="900" y="1180" width="500" height="300" rx="12" class="box"/>
  <text x="60" y="1210" class="label">Slider شهادات</text>
  <text x="920" y="1210" class="label">نموذج إضافة تجربة</text>
  <text x="40" y="1540" class="title">تواصل مباشر</text>
  <rect x="40" y="1560" width="1360" height="160" rx="12" class="box"/>
  <text x="60" y="1600" class="label">أزرار: دردشة، واتساب، هاتف، بريد</text>
</svg>
